<svg width="100" height="101" viewBox="0 0 100 101" fill="none" xmlns="http://www.w3.org/2000/svg">
<path d="M50 9.875C27.5996 9.875 9.375 28.0996 9.375 50.5C9.375 72.9004 27.5996 91.125 50 91.125C72.4004 91.125 90.625 72.9004 90.625 50.5C90.625 28.0996 72.4004 9.875 50 9.875ZM64.6035 52.3164L42.25 65.8203C41.9296 66.0123 41.5639 66.1155 41.1904 66.1195C40.8169 66.1235 40.4491 66.0281 40.1247 65.843C39.8002 65.6579 39.5309 65.3899 39.3442 65.0663C39.1576 64.7428 39.0603 64.3755 39.0625 64.002V36.998C39.0603 36.6245 39.1576 36.2572 39.3442 35.9337C39.5309 35.6101 39.8002 35.3421 40.1247 35.157C40.4491 34.9719 40.8169 34.8765 41.1904 34.8805C41.5639 34.8845 41.9296 34.9877 42.25 35.1797L64.6035 48.6836C64.9151 48.8734 65.1726 49.1402 65.3513 49.4583C65.53 49.7764 65.6239 50.1351 65.6239 50.5C65.6239 50.8649 65.53 51.2236 65.3513 51.5417C65.1726 51.8598 64.9151 52.1266 64.6035 52.3164Z" fill="white"/>
</svg>
